<svg width="86" height="85" viewBox="0 0 86 85" fill="none" xmlns="http://www.w3.org/2000/svg">
<path d="M30.7471 27.8315C23.9374 16.6031 29.9412 0.710497 42.8521 0.0752385C55.763 0.710497 61.7668 16.6031 54.9571 27.8315C57.1311 30.8163 56.3405 35.6915 52.9807 37.6814C54.9374 40.2902 56.4053 41.6239 58.8946 42.6853C60.0501 43.178 61.3507 43.2838 62.548 42.9054C64.164 42.3946 65.2573 41.6194 66.4792 40.1473C66.8443 39.7075 67.137 39.2099 67.3516 38.679C68.3918 36.1054 68.5629 34.1845 68.4523 31.2968C68.4224 30.5172 68.2659 29.7442 67.9492 29.0322C66.6958 26.2143 64.855 23.7866 61.7755 19.7726C60.688 18.4805 60.0845 17.4533 59.7816 16.4685C59.0112 13.9637 60.1768 10.5984 62.7312 10.0871C63.4433 9.94451 64.2406 10.0177 65.2341 10.2212C66.501 10.6592 67.1865 11.0143 67.707 11.7924C68.1395 12.4391 67.6988 13.2325 67.0419 12.8157C66.8853 12.7163 66.7278 12.6143 66.5846 12.5408C66.5156 12.5054 66.4432 12.4721 66.3656 12.4397C66.1426 12.3463 65.9015 12.3033 65.6601 12.3073C65.209 12.3147 64.9004 12.3696 64.6029 12.4719C64.2246 12.602 63.8868 12.836 63.6201 13.1356C63.4068 13.3752 63.2535 13.6039 63.1474 13.8452C62.739 14.7745 63.358 15.7901 64.0668 16.5137C66.9312 19.4382 68.6817 21.4518 71.3608 24.8467C73.8317 28.3325 74.7295 30.6065 75.0329 34.3342C75.1062 35.2356 75.0762 36.1458 74.9318 37.0385C74.518 39.5956 73.8231 41.1555 72.1513 43.3525C69.9632 45.7373 68.5999 47.0244 65.6294 49.1231C67.7394 49.9961 68.8734 50.0042 70.8667 49.7201C74.2487 49.3794 75.5554 48.5344 77.9816 47.1333C79.7777 45.8744 80.5267 44.9068 81.8354 43.1535C82.708 41.8612 83.1496 41.0727 83.318 39.4723C83.5274 37.4824 83.5844 36.5332 83.2189 34.5971C83.9608 35.2478 84.289 35.6676 84.6023 36.587C85.2372 38.2921 85.4014 39.2291 85.3929 40.8652C85.2997 43.3282 85.0624 44.7636 84.3412 46.7574C84.1297 47.3421 83.8513 47.9007 83.5276 48.4307C82.2186 50.5745 81.2254 51.8846 78.9697 53.5008C77.2703 54.3837 76.2583 54.846 74.1277 55.4907C72.7853 55.8396 72.0798 55.903 70.8667 55.8887C74.5163 57.3486 76.0692 58.636 78.1792 61.5598C79.5468 63.8639 79.8661 65.3927 79.8591 68.4248C79.5684 70.2553 79.3311 71.1698 79.029 72.1993C78.7946 72.9981 78.4998 73.7832 78.0667 74.4929C77.1705 75.9616 76.2687 76.7451 74.6218 77.6777C73.4488 78.2022 72.6409 78.3931 71.4745 78.3992C70.8922 78.4023 70.3424 78.1448 69.9307 77.7302C69.9015 77.7008 69.9009 77.653 69.9286 77.6222C70.5147 76.9732 71.3825 76.6814 72.2458 76.5633C73.7904 76.3519 74.2444 75.4316 75.1159 74.1955C76.7397 71.3743 76.3863 69.7375 76.104 66.8329C75.3488 64.9658 74.6439 63.8549 72.9632 62.8084C71.9511 62.1782 70.7387 61.9956 69.5497 62.0463C64.4046 62.2659 61.0541 62.0659 55.6488 60.3659C55.5438 63.8725 55.2533 65.7204 53.5736 68.4248C52.1326 70.446 51.3378 71.8691 50.925 73.7463C50.59 75.2695 50.7616 77.0049 51.6114 78.3095C52.4931 79.6632 53.9433 80.5497 55.5509 80.5773C55.9195 80.5836 56.2869 80.5474 56.679 80.4668C57.5922 80.279 58.4533 79.8683 59.1996 79.3061C60.1487 78.5911 60.6792 77.8351 61.2814 76.5833C61.792 75.1572 61.8159 74.3162 61.7755 72.8026C62.3599 73.8838 62.7253 74.6122 63.006 75.5638C63.2038 76.2343 63.2908 76.9348 63.2809 77.6342C63.2597 79.1379 62.954 80.0215 62.1708 81.16C60.7189 82.9858 59.7893 83.7589 57.6252 84.0453C56.5978 84.2378 55.7881 84.3271 55.0204 84.3368C52.9929 84.3624 50.8447 83.9478 49.3659 82.5511C49.0715 82.2729 48.7703 81.9474 48.4351 81.558C47.0044 80.1084 46.4456 79.0579 46.0635 76.5833C45.9891 74.8592 46.0092 73.5479 46.1411 72.2226C46.3946 69.6748 47.4359 67.2844 47.9688 64.7808C48.0732 64.2901 48.1604 63.7615 48.2375 63.1517C48.5804 61.5782 48.7113 60.6858 48.2375 58.973C47.6276 57.5665 46.9433 57.0611 45.5694 56.2866C43.8577 55.7155 41.8465 55.7155 40.1348 56.2866C38.761 57.0611 38.0767 57.5665 37.4667 58.973C36.9929 60.6858 37.1238 61.5782 37.4667 63.1517C37.5438 63.7615 37.631 64.2901 37.7355 64.7808C38.2683 67.2844 39.3096 69.6748 39.5631 72.2226C39.695 73.5479 39.7152 74.8592 39.6407 76.5833C39.2587 79.0579 38.6998 80.1084 37.2691 81.558C36.934 81.9474 36.6328 82.2729 36.3383 82.5511C34.8595 83.9478 32.7113 84.3624 30.6839 84.3368C29.9162 84.3271 29.1064 84.2378 28.0791 84.0453C25.9149 83.7589 24.9853 82.9858 23.5335 81.16C22.7502 80.0215 22.4445 79.1379 22.4233 77.6342C22.4134 76.9348 22.5004 76.2343 22.6982 75.5638C22.979 74.6122 23.3444 73.8838 23.9287 72.8026C23.8883 74.3162 23.9122 75.1572 24.4228 76.5833C25.025 77.8351 25.5555 78.5911 26.5046 79.3061C27.251 79.8683 28.112 80.279 29.0252 80.4668C29.4174 80.5474 29.7848 80.5836 30.1533 80.5773C31.7609 80.5497 33.2111 79.6632 34.0928 78.3095C34.9426 77.0049 35.1142 75.2695 34.7792 73.7463C34.3664 71.8691 33.5717 70.446 32.1306 68.4248C30.4509 65.7204 30.1604 63.8725 30.0554 60.3659C24.6501 62.0659 21.2996 62.2659 16.1545 62.0463C14.9655 61.9956 13.7531 62.1782 12.741 62.8084C11.7413 63.4309 11.0868 64.0762 10.5616 64.8898C9.78078 66.0997 9.49345 67.558 9.39366 68.9945C9.27321 70.7284 9.41154 72.1509 10.5884 74.1955C11.4598 75.4316 11.9138 76.3519 13.4584 76.5633C14.3218 76.6814 15.1895 76.9732 15.7756 77.6222C15.8034 77.653 15.8027 77.7008 15.7736 77.7302C15.3618 78.1448 14.812 78.4023 14.2297 78.3992C13.0633 78.3931 12.2554 78.2022 11.0825 77.6777C9.43555 76.7451 8.53377 75.9616 7.63758 74.4929C7.20446 73.7832 6.90967 72.9981 6.67522 72.1993C6.3731 71.1698 6.13579 70.2553 5.84512 68.4248C5.83818 65.3927 6.15744 63.8639 7.52502 61.5598C9.63499 58.636 11.1879 57.3486 14.8375 55.8887C13.6244 55.903 12.9189 55.8396 11.5765 55.4907C9.44589 54.846 8.43391 54.3837 6.73448 53.5008C4.47884 51.8846 3.48568 50.5745 2.17661 48.4307C1.85295 47.9007 1.5745 47.3421 1.36303 46.7574C0.641846 44.7636 0.404505 43.3282 0.311344 40.8652C0.302851 39.2291 0.467029 38.2921 1.10188 36.587C1.41523 35.6676 1.74338 35.2478 2.48533 34.5971C2.11985 36.5332 2.17685 37.4824 2.3862 39.4723C2.55458 41.0727 2.99619 41.8612 3.86877 43.1535C5.17754 44.9068 5.92651 45.8744 7.72266 47.1333C10.1489 48.5344 11.4556 49.3794 14.8375 49.7201C16.8308 50.0042 17.9649 49.9961 20.0748 49.1231C17.1043 47.0244 15.741 45.7373 13.5529 43.3525C11.8811 41.1555 11.1862 39.5956 10.7725 37.0385C10.628 36.1458 10.598 35.2356 10.6713 34.3342C10.9747 30.6065 11.8725 28.3325 14.3434 24.8467C17.0225 21.4518 18.773 19.4382 21.6375 16.5137C22.3462 15.7901 22.9652 14.7745 22.5568 13.8452C22.4508 13.6039 22.2974 13.3752 22.0841 13.1356C21.8174 12.836 21.4796 12.602 21.1014 12.4719C20.8039 12.3696 20.4952 12.3147 20.0441 12.3073C19.8027 12.3033 19.5616 12.3463 19.3386 12.4397C19.261 12.4721 19.1886 12.5054 19.1196 12.5408C18.9764 12.6143 18.8189 12.7163 18.6623 12.8157C18.0054 13.2325 17.5648 12.4391 17.9973 11.7924C18.5177 11.0143 19.2032 10.6592 20.4701 10.2212C21.4636 10.0177 22.2609 9.94451 22.973 10.0871C25.5274 10.5984 26.693 13.9637 25.9226 16.4685C25.6197 17.4533 25.0163 18.4805 23.9287 19.7726C20.8492 23.7866 19.0084 26.2143 17.7551 29.0322C17.4384 29.7442 17.2818 30.5172 17.2519 31.2968C17.1414 34.1845 17.3124 36.1054 18.3527 38.679C18.5672 39.2099 18.86 39.7075 19.225 40.1473C20.4469 41.6194 21.5402 42.3946 23.1563 42.9054C24.3535 43.2838 25.6542 43.178 26.8097 42.6853C29.2989 41.6239 30.7668 40.2902 32.7235 37.6814C29.3637 35.6915 28.5731 30.8163 30.7471 27.8315Z" fill="url(#paint0_linear_432_1229)"/>
<path d="M2.18335 38.2272C2.20572 37.8415 2.23633 37.442 2.27313 37.0163C2.34367 36.2003 2.48541 35.392 2.68277 34.5972C2.08987 35.0946 1.6946 35.8906 1.39815 36.4875C1.08825 37.4236 0.694666 38.3427 0.573488 39.3213C0.549073 39.5184 0.529372 39.7284 0.508789 39.9698C0.54435 41.359 0.573251 42.14 0.706424 43.5516C0.887856 44.9089 1.06628 45.6531 1.59578 46.9343L3.17686 49.7202C4.27028 51.2086 4.93964 51.9771 6.33902 53.1029C8.16127 54.2294 9.11105 54.5262 10.687 55.1923C12.3553 55.6359 13.3387 55.9534 15.035 55.8888L13.4539 56.5852C15.914 55.8421 18.5178 55.7944 21.0517 55.3654C21.5227 55.2857 22.0412 55.1939 22.6439 55.0928C24.8179 54.8938 25.8033 54.4403 27.7824 53.6004C28.1472 53.4046 28.4695 53.2211 28.7623 53.0368C30.7273 51.8001 32.1104 49.5381 31.8339 47.2328C31.6275 46.3953 30.6394 47.2416 30.0315 47.8537L29.6599 48.2278C28.7072 49.4699 28.0342 50.0563 26.5966 50.9141C24.3383 52.368 22.794 52.8753 19.877 53.6004C17.0967 53.9094 15.5966 53.6817 12.9598 53.0034C9.89634 52.2907 8.56387 51.3071 6.33902 49.3222C5.50215 48.3342 4.88586 47.4897 4.36012 46.6319C2.81934 44.1181 2.01265 41.1706 2.18335 38.2272Z" fill="white" fill-opacity="0.2"/>
<path d="M83.9744 38.1277C83.952 37.742 83.9214 37.3425 83.8846 36.9168C83.814 36.1008 83.6723 35.2925 83.4749 34.4977C84.0678 34.9951 84.4631 35.7911 84.7596 36.3881C85.0695 37.3241 85.463 38.2432 85.5842 39.2218C85.6086 39.4189 85.6283 39.6289 85.6489 39.8703C85.6134 41.2595 85.5845 42.0405 85.4513 43.4521C85.2699 44.8094 85.0914 45.5537 84.5619 46.8349L82.9809 49.6207C81.8874 51.1091 81.2181 51.8776 79.8187 53.0035C77.9964 54.13 77.0467 54.4267 75.4707 55.0928C73.8024 55.5364 72.819 55.8539 71.1228 55.7893L72.7038 56.4857C70.2437 55.7426 67.6399 55.695 65.106 55.266C64.635 55.1862 64.1165 55.0945 63.5138 54.9933C61.3398 54.7943 60.3544 54.3409 58.3753 53.5009C58.0105 53.3051 57.6882 53.1216 57.3954 52.9373C55.4304 51.7006 54.0473 49.4386 54.3238 47.1333C54.5302 46.2958 55.5183 47.1422 56.1262 47.7542L56.4978 48.1283C57.4505 49.3704 58.1235 49.9568 59.5611 50.8146C61.8194 52.2686 63.3637 52.7759 66.2807 53.5009C69.061 53.8099 70.5611 53.5822 73.1979 52.904C76.2614 52.1912 77.5938 51.2076 79.8187 49.2227C80.6556 48.2347 81.2719 47.3902 81.7976 46.5324C83.3384 44.0187 84.1451 41.0712 83.9744 38.1277Z" fill="white" fill-opacity="0.2"/>
<path d="M20.8391 12.3535C20.6946 12.3301 20.5473 12.3198 20.389 12.3235C19.6486 12.3408 18.9641 13.2275 18.2961 12.9076C18.2877 12.0491 18.9725 11.3208 19.7823 11.0358C20.2084 10.8859 20.6545 10.8684 21.2606 10.9177C22.9499 10.9177 24.7958 11.6285 25.0371 13.3004C25.072 13.5425 25.0966 13.8065 25.1145 14.1015C25.0317 15.6706 24.7364 16.388 23.9287 17.4843L18.9878 23.2549C17.0488 26.341 16.2903 28.1676 15.2327 31.5128C14.6926 34 14.6613 35.3433 15.4304 37.5819C16.1216 39.4964 16.6468 40.431 17.802 41.8602C18.9768 43.1758 19.955 44.1992 21.0365 45.1158C22.8246 46.6311 22.5961 49.4305 20.2724 49.1232L18.7902 48.0287C17.316 46.9152 16.5346 46.2361 15.2327 44.9444C13.5528 43.1536 12.5647 41.9596 11.6753 39.6713C11.2886 38.6764 10.7078 36.9706 10.8848 35.0946C10.8795 33.9094 10.9875 33.2298 11.1787 32.0264L11.1812 32.0103C11.4225 30.8951 11.5697 30.2687 12.0706 29.125C12.777 27.5721 13.2562 26.8366 14.2445 25.3442C14.5408 24.8468 16.2948 22.5957 17.802 20.867L20.1736 18.2802L22.15 16.1909C22.2483 16.0726 22.3312 15.9633 22.4043 15.8506C22.8186 15.2117 23.0306 14.3636 22.6983 13.6785C22.609 13.4943 22.4822 13.3248 22.3157 13.156C21.9154 12.75 21.4019 12.4447 20.8391 12.3535Z" fill="white" fill-opacity="0.2"/>
<path d="M65.3593 12.4777C65.5039 12.4543 65.6512 12.444 65.8095 12.4477C66.5499 12.4649 67.2344 13.3516 67.9024 13.0317C67.9107 12.1732 67.226 11.445 66.4162 11.16C65.9901 11.01 65.544 10.9926 64.9379 11.0419C63.2486 11.0419 61.4027 11.7527 61.1614 13.4246C61.1265 13.6667 61.1019 13.9307 61.084 14.2256C61.1668 15.7948 61.4621 16.5121 62.2698 17.6084L67.2107 23.379C69.1497 26.4651 69.9082 28.2918 70.9657 31.637C71.5058 34.1242 71.5372 35.4675 70.7681 37.7061C70.0769 39.6205 69.5516 40.5551 68.3965 41.9843C67.2217 43.3 66.2435 44.3234 65.162 45.2399C63.3739 46.7553 63.6024 49.5546 65.9261 49.2473L67.4083 48.1529C68.8824 47.0393 69.6638 46.3603 70.9657 45.0686C72.6456 43.2777 73.6338 42.0838 74.5232 39.7955C74.9099 38.8005 75.4907 37.0948 75.3137 35.2188C75.3189 34.0335 75.211 33.3539 75.0198 32.1506L75.0173 32.1345C74.776 31.0192 74.6288 30.3929 74.1279 29.2492C73.4215 27.6963 72.9423 26.9608 71.954 25.4684C71.6577 24.9709 69.9037 22.7198 68.3965 20.9912L66.0249 18.4044L64.0485 16.315C63.9502 16.1968 63.8672 16.0875 63.7942 15.9748C63.3799 15.3359 63.1679 14.4877 63.5002 13.8026C63.5895 13.6185 63.7163 13.449 63.8828 13.2801C64.2831 12.8742 64.7966 12.5689 65.3593 12.4777Z" fill="white" fill-opacity="0.2"/>
<path d="M30.1348 55.7892C30.1677 57.2153 30.115 60.2863 30.036 60.3659C28.3366 61.0809 27.3426 61.1261 25.3916 61.5598C21.8693 62.1198 20.0633 62.1779 16.9921 62.0573C15.3548 61.9665 14.5836 62.061 13.4347 62.4552C12.2256 63.0803 11.6687 63.5201 10.8654 64.4451C10.7432 64.627 10.633 64.793 10.5318 64.9506C9.77403 66.1303 9.51956 67.5417 9.39892 68.9386L9.38314 69.1213C9.29539 70.4713 9.39614 71.0606 9.58077 72.1061C9.87804 72.8643 10.0357 73.2928 10.4701 73.9965L11.4583 75.4889C12.1497 76.1206 12.5678 76.3979 13.4347 76.5833C13.5098 76.5862 13.5798 76.5893 13.646 76.5933C14.3289 76.6349 15.0235 76.898 15.5098 77.3793L15.8063 77.6777C14.1013 78.1084 12.2162 77.4999 11.0349 76.1972C10.9192 76.0695 10.7988 75.9332 10.6678 75.7874C8.84892 74.2482 8.27061 73.2097 7.60442 71.2107C6.80609 69.0401 6.87374 67.7698 7.60442 65.44C8.21507 63.5544 8.80444 62.687 10.2725 61.4603C10.9286 60.8766 11.5023 60.4118 12.1404 60.0031C14.3932 58.5603 17.1357 58.146 19.8001 57.9062C20.2131 57.8691 20.6182 57.8372 21.0235 57.8101C24.1789 57.5991 27.4987 57.536 30.1348 55.7892Z" fill="#C4C4C4" fill-opacity="0.3"/>
<path d="M55.4614 55.7892C55.4284 57.2153 55.4811 60.2863 55.5602 60.3659C57.2596 61.0809 58.2536 61.1261 60.2046 61.5598C63.7269 62.1198 65.5329 62.1779 68.6041 62.0573C70.2414 61.9665 71.0126 62.061 72.1615 62.4552C73.3706 63.0803 73.9275 63.5201 74.7308 64.4451C74.853 64.627 74.9632 64.793 75.0644 64.9506C75.8222 66.1303 76.0766 67.5417 76.1973 68.9386L76.2131 69.1213C76.3008 70.4713 76.2 71.0606 76.0154 72.1061C75.7181 72.8643 75.5605 73.2928 75.1261 73.9965L74.1379 75.4889C73.4464 76.1206 73.0284 76.3979 72.1615 76.5833C72.0864 76.5862 72.0164 76.5893 71.9502 76.5933C71.2673 76.6349 70.5727 76.898 70.0864 77.3793L69.7899 77.6777C71.4949 78.1084 73.38 77.4999 74.5613 76.1972C74.677 76.0695 74.7974 75.9332 74.9284 75.7874C76.7473 74.2482 77.3256 73.2097 77.9918 71.2107C78.7901 69.0401 78.7225 67.7698 77.9918 65.44C77.3811 63.5544 76.7917 62.687 75.3237 61.4603C74.6676 60.8766 74.0939 60.4118 73.4558 60.0031C71.203 58.5603 68.4605 58.146 65.7961 57.9062C65.3831 57.8691 64.978 57.8372 64.5726 57.8101C61.4173 57.5991 58.0975 57.536 55.4614 55.7892Z" fill="#C4C4C4" fill-opacity="0.3"/>
<path d="M42.7039 53.2023L42.7039 55.8886C42.3086 55.7892 40.6287 56.0876 40.1346 56.2866C38.5763 57.0868 38.133 57.6033 37.6642 58.575C37.0904 60.1214 37.1446 60.8909 37.2689 62.2562L38.1583 66.5345L39.4429 71.3101C39.8239 73.5133 39.8328 74.6775 39.6406 76.6828C39.4146 77.8061 39.235 78.3885 38.85 79.3691C38.0313 81.1319 37.3147 81.8719 35.7867 82.9509C34.4068 84.1128 33.4635 84.3291 31.6363 84.3438L28.0789 84.0453C26.2978 83.7542 25.6805 83.3538 24.7191 82.5529C23.7421 81.7473 23.3382 81.1242 22.7428 79.8666C22.3082 78.6294 22.3475 77.5782 22.5451 76.6828C22.6909 75.255 23.0845 74.3859 23.9286 72.8025C23.6953 73.944 23.5434 74.7574 23.502 75.6751C23.4541 76.7383 23.7333 77.783 24.1262 78.7721C24.3693 79.3853 24.5881 79.8504 24.8335 80.2455C25.5018 81.321 26.6483 82.0468 27.881 82.3361C28.3954 82.4568 28.8833 82.4849 29.414 82.4173C30.3882 82.2931 31.4004 82.0385 32.3695 81.8793C34.6411 81.506 36.6076 79.8722 36.955 77.5965C36.998 77.3144 37.0351 77.013 37.0713 76.6828C37.3265 73.9922 37.1244 72.4918 36.676 69.8177C36.0426 67.846 35.6982 66.6546 35.095 64.4451C34.3603 62.4008 34.2958 61.1641 34.5021 58.8735C34.7548 57.544 35.0469 56.8596 35.8855 55.7892L35.9918 55.6714C36.5753 55.0252 37.2666 54.4853 38.0349 54.0758C38.3802 53.8917 38.7382 53.7308 39.1124 53.6165C40.4151 53.2187 41.287 53.172 42.7039 53.2023Z" fill="#C4C4C4" fill-opacity="0.2"/>
<path d="M42.7039 53.2024V55.7967C43.0991 55.6972 44.8779 56.0951 45.372 56.2941C46.9303 57.0943 47.3736 57.6108 47.8424 58.5825C48.4162 60.1289 48.362 60.8984 48.2377 62.2638L47.3483 66.542L46.0637 71.3177C45.6827 73.5208 45.6738 74.6851 45.866 76.6903C46.092 77.8137 46.2716 78.396 46.6566 79.3766C47.4753 81.1394 48.1919 81.8795 49.7199 82.9584C51.0998 84.1203 52.0431 84.3366 53.8702 84.3513L57.4277 84.0528C59.2088 83.7617 59.8261 83.3614 60.7875 82.5604C61.7645 81.7548 62.1684 81.1318 62.7638 79.8741C63.1984 78.637 63.1591 77.5857 62.9615 76.6903C62.8157 75.2625 62.4221 74.3934 61.578 72.8101C61.8112 73.9515 61.9632 74.765 62.0046 75.6826C62.0525 76.7458 61.7733 77.7906 61.3804 78.7797C61.1373 79.3929 60.9185 79.858 60.6731 80.253C60.0048 81.3286 58.8583 82.0544 57.6255 82.3437C57.1112 82.4644 56.6233 82.4924 56.0926 82.4248C55.1184 82.3007 54.1062 82.0461 53.1371 81.8868C50.8655 81.5136 48.899 79.8798 48.5516 77.604C48.5085 77.3219 48.4715 77.0205 48.4353 76.6903C48.1801 73.9998 48.3822 72.4994 48.8306 69.8253C49.464 67.8535 49.8084 66.6621 50.4116 64.4526C51.1463 62.4084 51.2108 61.1716 51.0045 58.881C50.7518 57.5515 50.4597 56.8671 49.6211 55.7967L49.5148 55.679C48.9313 55.0327 48.24 54.4928 47.4717 54.0833C47.1264 53.8993 46.7684 53.7381 46.3939 53.6248C45.071 53.2247 44.1221 53.172 42.7039 53.2024Z" fill="#C4C4C4" fill-opacity="0.2"/>
<path d="M40.0356 36.0895V44.3475M43.3954 35.0946V45.0439M46.36 35.8906V44.646" stroke="black" stroke-opacity="0.3" stroke-linecap="round"/>
<ellipse cx="34.5019" cy="32.4082" rx="2.56926" ry="3.48227" fill="#15172E"/>
<ellipse cx="34.0078" cy="30.8162" rx="0.889357" ry="0.895441" fill="white" fill-opacity="0.9"/>
<ellipse cx="51.6962" cy="32.4082" rx="2.56926" ry="3.48227" fill="#15172E"/>
<ellipse cx="51.2021" cy="30.8162" rx="0.889359" ry="0.895441" fill="white" fill-opacity="0.9"/>
<ellipse cx="35.9842" cy="9.32587" rx="1.08699" ry="1.09443" fill="#15172E" fill-opacity="0.3"/>
<ellipse cx="40.6287" cy="6.24153" rx="1.18581" ry="1.19392" fill="#15172E" fill-opacity="0.3"/>
<ellipse cx="44.0873" cy="11.7136" rx="2.2728" ry="2.28835" fill="#15172E" fill-opacity="0.3"/>
<ellipse cx="38.1582" cy="13.9025" rx="1.28463" ry="1.29342" fill="#15172E" fill-opacity="0.3"/>
<ellipse cx="34.7984" cy="17.2853" rx="0.691721" ry="0.696453" fill="#15172E" fill-opacity="0.3"/>
<ellipse cx="40.9251" cy="19.4741" rx="1.87753" ry="1.89038" fill="#15172E" fill-opacity="0.3"/>
<defs>
<linearGradient id="paint0_linear_432_1229" x1="42.8521" y1="0.072876" x2="42.8521" y2="84.3379" gradientUnits="userSpaceOnUse">
<stop stop-color="#6b6d6b"/>
<stop offset="1" stop-color="#848c83"/>
</linearGradient>
</defs>
</svg>
